<svg xmlns="http://www.w3.org/2000/svg" xmlns:xlink="http://www.w3.org/1999/xlink" contentStyleType="text/css" data-diagram-type="DESCRIPTION" height="394px" preserveAspectRatio="none" style="width:1215px;height:394px;background:#FFFFFF;" version="1.1" viewBox="0 0 1215 394" width="1215px" zoomAndPan="magnify"><title>Module Hierarchy Diagram for Paw Connect</title><defs/><g><text fill="#000000" font-family="sans-serif" font-size="14" font-weight="bold" lengthAdjust="spacing" textLength="345.2559" x="427.8721" y="22.9951">Module Hierarchy Diagram for Paw Connect</text><!--cluster Paw Connect System--><g id="cluster_Paw Connect System"><path d="M8.5,43.2969 L174.5195,43.2969 A3.75,3.75 0 0 1 177.0195,45.7969 L184.0195,65.5938 L1205.5,65.5938 A2.5,2.5 0 0 1 1208,68.0938 L1208,384.6869 A2.5,2.5 0 0 1 1205.5,387.1869 L8.5,387.1869 A2.5,2.5 0 0 1 6,384.6869 L6,45.7969 A2.5,2.5 0 0 1 8.5,43.2969 " fill="none" style="stroke:#000000;stroke-width:1.5;"/><line style="stroke:#000000;stroke-width:1.5;" x1="6" x2="184.0195" y1="65.5938" y2="65.5938"/><text fill="#000000" font-family="sans-serif" font-size="14" font-weight="bold" lengthAdjust="spacing" textLength="165.0195" x="10" y="58.292">Paw Connect System</text></g><!--entity User Module--><g id="elem_User Module"><rect fill="#F1F1F1" height="46.2969" rx="2.5" ry="2.5" style="stroke:#181818;stroke-width:0.5;" width="127.2676" x="577.37" y="78.2969"/><rect fill="#F1F1F1" height="10" style="stroke:#181818;stroke-width:0.5;" width="15" x="684.6376" y="83.2969"/><rect fill="#F1F1F1" height="2" style="stroke:#181818;stroke-width:0.5;" width="4" x="682.6376" y="85.2969"/><rect fill="#F1F1F1" height="2" style="stroke:#181818;stroke-width:0.5;" width="4" x="682.6376" y="89.2969"/><text fill="#000000" font-family="sans-serif" font-size="14" lengthAdjust="spacing" textLength="87.2676" x="592.37" y="111.292">User Module</text></g><!--entity Appointment Management Module--><g id="elem_Appointment Management Module"><rect fill="#F1F1F1" height="46.2969" rx="2.5" ry="2.5" style="stroke:#181818;stroke-width:0.5;" width="282.8125" x="21.59" y="201.5969"/><rect fill="#F1F1F1" height="10" style="stroke:#181818;stroke-width:0.5;" width="15" x="284.4025" y="206.5969"/><rect fill="#F1F1F1" height="2" style="stroke:#181818;stroke-width:0.5;" width="4" x="282.4025" y="208.5969"/><rect fill="#F1F1F1" height="2" style="stroke:#181818;stroke-width:0.5;" width="4" x="282.4025" y="212.5969"/><text fill="#000000" font-family="sans-serif" font-size="14" lengthAdjust="spacing" textLength="242.8125" x="36.59" y="234.592">Appointment Management Module</text></g><!--entity Medical History Module--><g id="elem_Medical History Module"><rect fill="#F1F1F1" height="46.2969" rx="2.5" ry="2.5" style="stroke:#181818;stroke-width:0.5;" width="203.249" x="339.38" y="201.5969"/><rect fill="#F1F1F1" height="10" style="stroke:#181818;stroke-width:0.5;" width="15" x="522.629" y="206.5969"/><rect fill="#F1F1F1" height="2" style="stroke:#181818;stroke-width:0.5;" width="4" x="520.629" y="208.5969"/><rect fill="#F1F1F1" height="2" style="stroke:#181818;stroke-width:0.5;" width="4" x="520.629" y="212.5969"/><text fill="#000000" font-family="sans-serif" font-size="14" lengthAdjust="spacing" textLength="163.249" x="354.38" y="234.592">Medical History Module</text></g><!--entity Prescription Management Module--><g id="elem_Prescription Management Module"><rect fill="#F1F1F1" height="46.2969" rx="2.5" ry="2.5" style="stroke:#181818;stroke-width:0.5;" width="275.1836" x="303.41" y="324.8869"/><rect fill="#F1F1F1" height="10" style="stroke:#181818;stroke-width:0.5;" width="15" x="558.5936" y="329.8869"/><rect fill="#F1F1F1" height="2" style="stroke:#181818;stroke-width:0.5;" width="4" x="556.5936" y="331.8869"/><rect fill="#F1F1F1" height="2" style="stroke:#181818;stroke-width:0.5;" width="4" x="556.5936" y="335.8869"/><text fill="#000000" font-family="sans-serif" font-size="14" lengthAdjust="spacing" textLength="235.1836" x="318.41" y="357.882">Prescription Management Module</text></g><!--entity Blog Module--><g id="elem_Blog Module"><rect fill="#F1F1F1" height="46.2969" rx="2.5" ry="2.5" style="stroke:#181818;stroke-width:0.5;" width="126.3037" x="577.85" y="201.5969"/><rect fill="#F1F1F1" height="10" style="stroke:#181818;stroke-width:0.5;" width="15" x="684.1537" y="206.5969"/><rect fill="#F1F1F1" height="2" style="stroke:#181818;stroke-width:0.5;" width="4" x="682.1537" y="208.5969"/><rect fill="#F1F1F1" height="2" style="stroke:#181818;stroke-width:0.5;" width="4" x="682.1537" y="212.5969"/><text fill="#000000" font-family="sans-serif" font-size="14" lengthAdjust="spacing" textLength="86.3037" x="592.85" y="234.592">Blog Module</text></g><!--entity Team Information Module--><g id="elem_Team Information Module"><rect fill="#F1F1F1" height="46.2969" rx="2.5" ry="2.5" style="stroke:#181818;stroke-width:0.5;" width="220.4756" x="738.76" y="201.5969"/><rect fill="#F1F1F1" height="10" style="stroke:#181818;stroke-width:0.5;" width="15" x="939.2356" y="206.5969"/><rect fill="#F1F1F1" height="2" style="stroke:#181818;stroke-width:0.5;" width="4" x="937.2356" y="208.5969"/><rect fill="#F1F1F1" height="2" style="stroke:#181818;stroke-width:0.5;" width="4" x="937.2356" y="212.5969"/><text fill="#000000" font-family="sans-serif" font-size="14" lengthAdjust="spacing" textLength="180.4756" x="753.76" y="234.592">Team Information Module</text></g><!--entity Authentication Module--><g id="elem_Authentication Module"><rect fill="#F1F1F1" height="46.2969" rx="2.5" ry="2.5" style="stroke:#181818;stroke-width:0.5;" width="198.1289" x="993.94" y="201.5969"/><rect fill="#F1F1F1" height="10" style="stroke:#181818;stroke-width:0.5;" width="15" x="1172.0689" y="206.5969"/><rect fill="#F1F1F1" height="2" style="stroke:#181818;stroke-width:0.5;" width="4" x="1170.0689" y="208.5969"/><rect fill="#F1F1F1" height="2" style="stroke:#181818;stroke-width:0.5;" width="4" x="1170.0689" y="212.5969"/><text fill="#000000" font-family="sans-serif" font-size="14" lengthAdjust="spacing" textLength="158.1289" x="1008.94" y="234.592">Authentication Module</text></g><!--link User Module to Authentication Module--><g id="link_User Module_Authentication Module"><path d="M704.8,119.5669 C784.38,140.9169 914.855,175.9319 1002.955,199.5719 " fill="none" id="User Module-to-Authentication Module" style="stroke:#181818;stroke-width:1;"/><polygon fill="#181818" points="1008.75,201.1269,1001.0942,194.9311,1003.9208,199.8311,999.0208,202.6577,1008.75,201.1269" style="stroke:#181818;stroke-width:1;"/><text fill="#000000" font-family="sans-serif" font-size="13" lengthAdjust="spacing" textLength="31.0591" x="895" y="167.6638">Uses</text></g><!--link User Module to Appointment Management Module--><g id="link_User Module_Appointment Management Module"><path d="M577.03,118.6769 C493.46,139.8869 352.5057,175.6512 258.0357,199.6212 " fill="none" id="User Module-to-Appointment Management Module" style="stroke:#181818;stroke-width:1;"/><polygon fill="#181818" points="252.22,201.0969,261.9273,202.7606,257.0664,199.8672,259.9598,195.0063,252.22,201.0969" style="stroke:#181818;stroke-width:1;"/><text fill="#000000" font-family="sans-serif" font-size="13" lengthAdjust="spacing" textLength="59.5029" x="431" y="167.6638">Accesses</text></g><!--link User Module to Medical History Module--><g id="link_User Module_Medical History Module"><path d="M603.85,124.9769 C568.04,146.6969 519.2801,176.2653 483.4201,198.0153 " fill="none" id="User Module-to-Medical History Module" style="stroke:#181818;stroke-width:1;"/><polygon fill="#181818" points="478.29,201.1269,488.0596,199.8796,482.5651,198.5339,483.9108,193.0395,478.29,201.1269" style="stroke:#181818;stroke-width:1;"/><text fill="#000000" font-family="sans-serif" font-size="13" lengthAdjust="spacing" textLength="37.9082" x="553" y="167.6638">Views</text></g><!--link Medical History Module to Prescription Management Module--><g id="link_Medical History Module_Prescription Management Module"><path d="M417.86,248.3669 C410.7,256.8769 403.73,267.1169 400,277.8869 C394.25,294.5069 400.1167,307.021 411.5967,320.011 " fill="none" id="Medical History Module-to-Prescription Management Module" style="stroke:#181818;stroke-width:1;"/><polygon fill="#181818" points="415.57,324.5069,412.6073,315.1142,412.2589,320.7603,406.6128,320.4119,415.57,324.5069" style="stroke:#181818;stroke-width:1;"/><text fill="#000000" font-family="sans-serif" font-size="13" lengthAdjust="spacing" textLength="33.395" x="401" y="290.9538">Links</text></g><!--link Prescription Management Module to Medical History Module--><g id="link_Prescription Management Module_Medical History Module"><path d="M441,324.6269 C441,302.8869 441,276.0569 441,254.2769 " fill="none" id="Prescription Management Module-to-Medical History Module" style="stroke:#181818;stroke-width:1;"/><polygon fill="#181818" points="441,248.2769,437,257.2769,441,253.2769,445,257.2769,441,248.2769" style="stroke:#181818;stroke-width:1;"/><text fill="#000000" font-family="sans-serif" font-size="13" lengthAdjust="spacing" textLength="53.8535" x="442" y="290.9538">Updates</text></g><!--link User Module to Blog Module--><g id="link_User Module_Blog Module"><path d="M641,124.9769 C641,146.7669 641,173.5869 641,195.3269 " fill="none" id="User Module-to-Blog Module" style="stroke:#181818;stroke-width:1;"/><polygon fill="#181818" points="641,201.3269,645,192.3269,641,196.3269,637,192.3269,641,201.3269" style="stroke:#181818;stroke-width:1;"/><text fill="#000000" font-family="sans-serif" font-size="13" lengthAdjust="spacing" textLength="40.022" x="642" y="167.6638">Reads</text></g><!--link User Module to Team Information Module--><g id="link_User Module_Team Information Module"><path d="M679.64,124.9769 C716.88,146.6969 767.7472,176.3539 805.0372,198.1039 " fill="none" id="User Module-to-Team Information Module" style="stroke:#181818;stroke-width:1;"/><polygon fill="#181818" points="810.22,201.1269,804.4611,193.1372,805.901,198.6077,800.4305,200.0476,810.22,201.1269" style="stroke:#181818;stroke-width:1;"/><text fill="#000000" font-family="sans-serif" font-size="13" lengthAdjust="spacing" textLength="37.9082" x="758" y="167.6638">Views</text></g><!--SRC=[XP3FQW913CRlynJ1ko_WeQ3sOA4BqgeNwI7CfcjmTsQOYSWYVVT6BUq8EztJ_CdtIxvymj8ILBu-wR5YYXZjeOTdnYPY1vy-mXhFiFJEaHLZ0jeZDWIJx1VU-oJKJU1Y0FRRHF6duSVrFG_1ivEEd425Jk7xzKzHKSqMMnsVnCS-BwqZ9Hiv27jNe1UjR_BtXjJtYrFd7TwnpCj93ehhj8VAbp4Fjc4wVIg9OGOgJOF0lvigEBUMKW4kXA3KZkciI4bmeqToqYwlx8w3W_FyLFT6M0_gIhd-EZIZBaOMtOOQXT8t]--></g></svg>