<svg xmlns="http://www.w3.org/2000/svg" xmlns:xlink="http://www.w3.org/1999/xlink" contentStyleType="text/css" data-diagram-type="DESCRIPTION" height="547px" preserveAspectRatio="none" style="width:838px;height:547px;background:#FFFFFF;" version="1.1" viewBox="0 0 838 547" width="838px" zoomAndPan="magnify"><defs/><g><!--cluster Paw Connect--><g id="cluster_Paw Connect"><path d="M8.5,6 L111.3281,6 A3.75,3.75 0 0 1 113.8281,8.5 L120.8281,28.2969 L821.5,28.2969 A2.5,2.5 0 0 1 824,30.7969 L824,538.39 A2.5,2.5 0 0 1 821.5,540.89 L8.5,540.89 A2.5,2.5 0 0 1 6,538.39 L6,8.5 A2.5,2.5 0 0 1 8.5,6 " fill="none" style="stroke:#000000;stroke-width:1.5;"/><line style="stroke:#000000;stroke-width:1.5;" x1="6" x2="120.8281" y1="28.2969" y2="28.2969"/><text fill="#000000" font-family="sans-serif" font-size="14" font-weight="bold" lengthAdjust="spacing" textLength="101.8281" x="10" y="20.9951">Paw Connect</text></g><!--cluster Frontend--><g id="cluster_Frontend"><path d="M40.5,57 L113.7285,57 A3.75,3.75 0 0 1 116.2285,59.5 L123.2285,79.2969 L283.5,79.2969 A2.5,2.5 0 0 1 286,81.7969 L286,328.09 A2.5,2.5 0 0 1 283.5,330.59 L40.5,330.59 A2.5,2.5 0 0 1 38,328.09 L38,59.5 A2.5,2.5 0 0 1 40.5,57 " fill="none" style="stroke:#000000;stroke-width:1.5;"/><line style="stroke:#000000;stroke-width:1.5;" x1="38" x2="123.2285" y1="79.2969" y2="79.2969"/><text fill="#000000" font-family="sans-serif" font-size="14" font-weight="bold" lengthAdjust="spacing" textLength="72.2285" x="42" y="71.9951">Frontend</text></g><!--cluster Backend--><g id="cluster_Backend"><path d="M328.5,217.3 L396.7109,217.3 A3.75,3.75 0 0 1 399.2109,219.8 L406.2109,239.5969 L621.5,239.5969 A2.5,2.5 0 0 1 624,242.0969 L624,328.09 A2.5,2.5 0 0 1 621.5,330.59 L328.5,330.59 A2.5,2.5 0 0 1 326,328.09 L326,219.8 A2.5,2.5 0 0 1 328.5,217.3 " fill="none" style="stroke:#000000;stroke-width:1.5;"/><line style="stroke:#000000;stroke-width:1.5;" x1="326" x2="406.2109" y1="239.5969" y2="239.5969"/><text fill="#000000" font-family="sans-serif" font-size="14" font-weight="bold" lengthAdjust="spacing" textLength="67.2109" x="330" y="232.2951">Backend</text></g><!--cluster Database--><g id="cluster_Database"><path d="M495.5,395.59 L571.0049,395.59 A3.75,3.75 0 0 1 573.5049,398.09 L580.5049,417.8869 L645.5,417.8869 A2.5,2.5 0 0 1 648,420.3869 L648,506.39 A2.5,2.5 0 0 1 645.5,508.89 L495.5,508.89 A2.5,2.5 0 0 1 493,506.39 L493,398.09 A2.5,2.5 0 0 1 495.5,395.59 " fill="none" style="stroke:#000000;stroke-width:1.5;"/><line style="stroke:#000000;stroke-width:1.5;" x1="493" x2="580.5049" y1="417.8869" y2="417.8869"/><text fill="#000000" font-family="sans-serif" font-size="14" font-weight="bold" lengthAdjust="spacing" textLength="74.5049" x="497" y="410.5851">Database</text></g><!--entity HTML--><g id="elem_HTML"><rect fill="#F1F1F1" height="46.2969" rx="2.5" ry="2.5" style="stroke:#181818;stroke-width:0.5;" width="78.958" x="61.52" y="100"/><rect fill="#F1F1F1" height="10" style="stroke:#181818;stroke-width:0.5;" width="15" x="120.478" y="105"/><rect fill="#F1F1F1" height="2" style="stroke:#181818;stroke-width:0.5;" width="4" x="118.478" y="107"/><rect fill="#F1F1F1" height="2" style="stroke:#181818;stroke-width:0.5;" width="4" x="118.478" y="111"/><text fill="#000000" font-family="sans-serif" font-size="14" lengthAdjust="spacing" textLength="38.958" x="76.52" y="132.9951">HTML</text></g><!--entity CSS--><g id="elem_CSS"><rect fill="#F1F1F1" height="46.2969" rx="2.5" ry="2.5" style="stroke:#181818;stroke-width:0.5;" width="67.5488" x="175.23" y="100"/><rect fill="#F1F1F1" height="10" style="stroke:#181818;stroke-width:0.5;" width="15" x="222.7788" y="105"/><rect fill="#F1F1F1" height="2" style="stroke:#181818;stroke-width:0.5;" width="4" x="220.7788" y="107"/><rect fill="#F1F1F1" height="2" style="stroke:#181818;stroke-width:0.5;" width="4" x="220.7788" y="111"/><text fill="#000000" font-family="sans-serif" font-size="14" lengthAdjust="spacing" textLength="27.5488" x="190.23" y="132.9951">CSS</text></g><!--entity Bootstrap--><g id="elem_Bootstrap"><rect fill="#F1F1F1" height="46.2969" rx="2.5" ry="2.5" style="stroke:#181818;stroke-width:0.5;" width="108.2295" x="61.89" y="260.3"/><rect fill="#F1F1F1" height="10" style="stroke:#181818;stroke-width:0.5;" width="15" x="150.1195" y="265.3"/><rect fill="#F1F1F1" height="2" style="stroke:#181818;stroke-width:0.5;" width="4" x="148.1195" y="267.3"/><rect fill="#F1F1F1" height="2" style="stroke:#181818;stroke-width:0.5;" width="4" x="148.1195" y="271.3"/><text fill="#000000" font-family="sans-serif" font-size="14" lengthAdjust="spacing" textLength="68.2295" x="76.89" y="293.2951">Bootstrap</text></g><!--entity Python Flask--><g id="elem_Python Flask"><rect fill="#F1F1F1" height="46.2969" rx="2.5" ry="2.5" style="stroke:#181818;stroke-width:0.5;" width="128.9014" x="349.55" y="260.3"/><rect fill="#F1F1F1" height="10" style="stroke:#181818;stroke-width:0.5;" width="15" x="458.4514" y="265.3"/><rect fill="#F1F1F1" height="2" style="stroke:#181818;stroke-width:0.5;" width="4" x="456.4514" y="267.3"/><rect fill="#F1F1F1" height="2" style="stroke:#181818;stroke-width:0.5;" width="4" x="456.4514" y="271.3"/><text fill="#000000" font-family="sans-serif" font-size="14" lengthAdjust="spacing" textLength="88.9014" x="364.55" y="293.2951">Python Flask</text></g><!--entity PHP--><g id="elem_PHP"><rect fill="#F1F1F1" height="46.2969" rx="2.5" ry="2.5" style="stroke:#181818;stroke-width:0.5;" width="67.4121" x="513.29" y="260.3"/><rect fill="#F1F1F1" height="10" style="stroke:#181818;stroke-width:0.5;" width="15" x="560.7021" y="265.3"/><rect fill="#F1F1F1" height="2" style="stroke:#181818;stroke-width:0.5;" width="4" x="558.7021" y="267.3"/><rect fill="#F1F1F1" height="2" style="stroke:#181818;stroke-width:0.5;" width="4" x="558.7021" y="271.3"/><text fill="#000000" font-family="sans-serif" font-size="14" lengthAdjust="spacing" textLength="27.4121" x="528.29" y="293.2951">PHP</text></g><!--entity MySQL--><g id="elem_MySQL"><rect fill="#F1F1F1" height="46.2969" rx="2.5" ry="2.5" style="stroke:#181818;stroke-width:0.5;" width="88.0703" x="516.96" y="438.59"/><rect fill="#F1F1F1" height="10" style="stroke:#181818;stroke-width:0.5;" width="15" x="585.0303" y="443.59"/><rect fill="#F1F1F1" height="2" style="stroke:#181818;stroke-width:0.5;" width="4" x="583.0303" y="445.59"/><rect fill="#F1F1F1" height="2" style="stroke:#181818;stroke-width:0.5;" width="4" x="583.0303" y="449.59"/><text fill="#000000" font-family="sans-serif" font-size="14" lengthAdjust="spacing" textLength="48.0703" x="531.96" y="471.5851">MySQL</text></g><!--link Frontend to Backend--><g id="link_Frontend_Backend"><path d="M286.2543,126.018 C286.4667,126.0662 286.6829,126.1153 286.9028,126.1652 C288.6622,126.5647 290.6622,127.019 292.8842,127.5242 C301.7723,129.545 314.2136,132.3795 329.0278,135.7702 C358.6563,142.5516 397.7763,151.5581 436.945,160.7313 C515.2825,179.0775 593.815,198.09 597,201.3 C600.16,204.4825 602.8333,208.0841 605.0914,211.9565 C605.6559,212.9247 606.1945,213.9097 606.7082,214.9094 C606.9651,215.4092 607.2158,215.9127 607.4604,216.4196 C607.5827,216.673 605.1618,233.7891 605.2811,234.0441 " fill="none" id="Frontend-to-Backend" style="stroke:#181818;stroke-width:1;"/><polygon fill="#181818" points="607.8227,239.4792,607.6336,229.6322,605.7047,234.95,600.3869,233.021,607.8227,239.4792" style="stroke:#181818;stroke-width:1;"/><text fill="#000000" font-family="sans-serif" font-size="13" lengthAdjust="spacing" textLength="103.8096" x="568" y="189.3669">Sends Requests</text></g><!--link Backend to Database--><g id="link_Backend_Database"><path d="M604.2643,330.7055 C604.1035,331.1286 603.9408,331.5512 603.7761,331.9731 C603.1176,333.6608 602.4285,335.3381 601.7079,336.9942 C600.2669,340.3064 598.7,343.5337 597,346.59 C594.7,350.72 591.66,350.17 590,354.59 C587.34,361.67 585.37,365.62 590,371.59 C598.71,382.84 611.05,369.42 621,379.59 C624.1363,382.7975 626.7916,386.4181 629.0364,390.3048 C629.5976,391.2765 630.1332,392.2647 630.6442,393.2674 C630.8997,393.7687 631.1491,394.2736 631.3925,394.7818 C631.5141,395.0358 629.108,412.1454 629.2267,412.4011 " fill="none" id="Backend-to-Database" style="stroke:#181818;stroke-width:1;"/><polygon fill="#181818" points="631.753,417.8433,631.5917,407.9958,629.6478,413.3082,624.3354,411.3642,631.753,417.8433" style="stroke:#181818;stroke-width:1;"/><text fill="#000000" font-family="sans-serif" font-size="13" lengthAdjust="spacing" textLength="85.3696" x="591" y="367.6569">Queries Data</text></g><!--link Frontend to Database--><g id="link_Frontend_Database"><path d="M286.378,124.5847 C286.6133,124.5974 286.8532,124.6103 287.0977,124.6235 C287.5868,124.6498 288.0942,124.6773 288.6196,124.7058 C290.7213,124.82 293.1115,124.9516 295.769,125.1005 C306.399,125.6959 321.3049,126.5681 339.1236,127.7113 C374.7609,129.9975 422.0494,133.3675 470.0837,137.775 C566.1525,146.59 665.205,159.555 680,176.3 C721.605,223.385 712.565,293.025 692.655,351.6113 C682.7,380.9044 670.0275,407.4341 659.6094,426.9992 C657.0048,431.8905 654.5412,436.3465 652.2962,440.3016 C651.1736,442.2791 650.1058,444.1314 649.1022,445.8503 C648.8514,446.28 648.6045,446.7014 648.3618,447.1143 C648.2405,447.3208 651.1678,442.3568 651.0486,442.559 " fill="none" id="Frontend-to-Database" style="stroke:#181818;stroke-width:1;"/><polygon fill="#181818" points="648.0009,447.7273,656.018,442.0066,650.5407,443.4204,649.1269,437.943,648.0009,447.7273" style="stroke:#181818;stroke-width:1;"/><polygon fill="none" points="715,279.0064,719,283.0064,715,287.0064,711,283.0064" style="stroke:#B38D22;stroke-width:1;"/><text fill="#000000" font-family="sans-serif" font-size="13" lengthAdjust="spacing" textLength="108.9448" x="722" y="288.0069">direct if required</text><text fill="#000000" font-family="sans-serif" font-size="13" lengthAdjust="spacing" textLength="93.4248" x="278.07" y="121.2169">Receives Data</text></g><!--SRC=[PP2n3e8m48RtFiMbpho0WuCOmW19eMw6eSAfZQR5jcY8yTqjI2N4xQxzll-kRKLz5MS4oiGJOgqKrex2Ym0S4gELGzLKGxFrNAXtmecZi5YHDo5j20ZuPAVxF1lfcFDlWjREEYFQfJO5JnRhtKKhI6x2NaUBfMp9X-6JaFUyo4PYtXUYQ3Dl36kWt1SMIhntQ9sbPBuSqT-31hReq4YqC1pIlzG5McADyX5OM3NI-Ey3UGBZH_cc-G00]--></g></svg>